<svg width="170" height="35" viewBox="0 0 170 35" fill="none" xmlns="http://www.w3.org/2000/svg">
<path fill-rule="evenodd" clip-rule="evenodd" d="M58.4529 11.035C58.5949 7.319 61.3669 5.19 63.9169 5.202C66.8669 5.116 69.4879 7.75 69.4479 11.04L69.4999 24.145L66.6899 23.522L66.6869 11.038C66.6559 9.243 65.3769 8.198 63.9129 8.148C62.5729 8.193 61.3169 9.258 61.2609 11.035L61.2419 24.073L58.4839 24.097L58.4539 11.035H58.4529Z" fill="#160E20"/>
<path fill-rule="evenodd" clip-rule="evenodd" d="M58.4729 24.097C58.5369 27.813 61.3859 29.942 63.9369 29.93C66.8849 30.016 69.5309 27.382 69.4899 24.093L69.4569 19.83L66.6869 21.26L66.6899 24.094C66.6599 25.89 65.3959 26.934 63.9319 26.984C62.5919 26.939 61.3359 25.874 61.2799 24.097L61.2149 11.052L58.5039 11.035L58.4729 24.097V24.097ZM72.8679 24.165C73.0089 27.882 75.7809 30.01 78.3309 29.998C81.2809 30.084 83.9029 27.45 83.8629 24.161L83.8829 18.825L83.8929 15.789L77.4279 14.987L77.7159 17.487L81.0989 18.731L81.1029 19.657L81.1009 24.162C81.0699 25.958 79.7909 27.002 78.3269 27.052C76.9869 27.007 75.7309 25.942 75.6759 24.165L75.6559 11.128L72.8989 11.103L72.8679 24.165V24.165Z" fill="#160E20"/>
<path fill-rule="evenodd" clip-rule="evenodd" d="M72.879 10.578C72.967 9.396 73.655 6.299 77.164 5.346C77.524 5.261 78.017 5.191 78.389 5.2L83.807 5.553L83.197 8.158C82.302 8.128 79.732 8.162 78.244 8.156C77.208 8.224 75.715 9.003 75.65 11.034L75.636 22.902L72.879 22.51V10.578ZM45 10.578C45.088 9.396 45.776 6.299 49.285 5.346C49.6863 5.2499 50.0974 5.20091 50.51 5.2L55.928 5.553L55.318 8.158C54.423 8.128 51.853 8.162 50.364 8.156C49.329 8.224 47.836 9.003 47.771 11.032L47.757 29.878H45V10.578Z" fill="#160E20"/>
<path fill-rule="evenodd" clip-rule="evenodd" d="M45.4661 15.642L55.3041 15.902L55.2381 18.446L45.4661 18.706V15.642ZM102.648 29.947H105.421V7.71301H102.648V29.947V29.947Z" fill="#160E20"/>
<path fill-rule="evenodd" clip-rule="evenodd" d="M109.527 8.06599V5.12999H98.4971V8.06499H109.527V8.06599ZM125.705 10.505C125.793 9.32499 126.481 6.22699 129.99 5.27499C130.391 5.17923 130.802 5.12991 131.215 5.12799L136.632 5.48099L136.023 8.08699C135.128 8.05499 132.558 8.09099 131.07 8.08399C130.033 8.15299 128.541 8.93199 128.476 10.961L128.468 21.798L127.724 22.351L126.888 22.299L125.705 22.215V10.505V10.505Z" fill="#160E20"/>
<path fill-rule="evenodd" clip-rule="evenodd" d="M126.236 15.579L136.075 15.839L136.009 18.383L126.236 18.643V15.58V15.579Z" fill="#160E20"/>
<path fill-rule="evenodd" clip-rule="evenodd" d="M125.698 24.522C125.785 25.704 126.474 28.801 129.982 29.754C130.343 29.839 130.835 29.909 131.207 29.901L136.626 29.547L136.016 26.942C135.121 26.972 132.551 26.938 131.062 26.944C130.025 26.876 128.534 26.097 128.468 24.067L128.46 13.23L127.716 12.677L126.88 12.729L125.698 12.814V24.522V24.522ZM154.205 10.448C154.291 9.266 154.31 6.145 158.096 5.135C160.098 4.682 163.109 6.461 163.36 9.503L161.803 13.927C161.678 13.734 161.597 7.942 159.022 7.96C158.604 7.95268 158.193 8.07745 157.85 8.31659C157.507 8.55572 157.247 8.89703 157.109 9.292C156.953 9.718 156.974 10.255 156.975 10.903L156.946 29.7L154.212 29.675L154.205 10.448V10.448Z" fill="#160E20"/>
<path fill-rule="evenodd" clip-rule="evenodd" d="M170 10.415C169.912 9.234 169.893 6.113 166.109 5.102C163.99 4.528 161.094 6.428 160.845 9.47L162.402 13.895C162.526 13.701 162.608 7.91 165.182 7.928C166.022 7.919 166.789 8.418 167.096 9.26C167.25 9.685 167.23 10.223 167.228 10.87L167.243 29.716H170V10.415Z" fill="#160E20"/>
<path fill-rule="evenodd" clip-rule="evenodd" d="M160.662 8.024L161.001 18.5L163.373 18.487L163.712 8.089L160.662 8.024V8.024ZM86.2249 10.57C86.2779 9.379 86.8609 6.307 90.3389 5.231C90.6989 5.134 91.2059 5.038 91.5789 5.034C94.9549 4.962 97.2459 7.782 97.2259 10.857L97.2139 12.654L94.5299 12.656L94.4299 10.622C94.3399 8.802 92.7419 7.921 91.5329 8.02C90.4989 8.123 89.0439 8.89 89.0389 10.935C89.0319 12.115 89.1669 12.645 90.9229 14.539L95.7629 19.631C99.7129 24.026 96.5269 29.899 92.3629 29.972C88.2549 30.045 86.7359 26.702 86.6149 24.881L86.5659 24.148L87.7939 23.811C87.8759 23.789 87.1949 23.847 88.3289 23.661C88.2639 25.754 88.9109 23.261 89.2969 24.646C89.6579 25.947 90.4369 26.808 92.0419 26.988C93.3209 26.94 94.5209 26.035 94.7329 24.326C94.9449 22.765 93.3529 21.456 91.7509 19.772C90.1859 18.127 88.6339 16.222 87.7829 15.246C86.8649 14.096 86.0969 12.84 86.2249 10.57V10.57Z" fill="#160E20"/>
<path fill-rule="evenodd" clip-rule="evenodd" d="M97.566 24.441C97.514 25.633 96.931 28.704 93.452 29.779C93.094 29.877 92.585 29.974 92.213 29.977C88.836 30.048 86.314 27.221 86.535 24.155L86.585 21.285L89.359 21.287L89.385 24.38C89.399 26.204 91.051 27.09 92.259 26.99C93.293 26.888 94.747 26.12 94.753 24.077C94.76 22.896 94.624 22.367 92.868 20.472C91.495 19.026 86.609 10.021 91.161 14.778C92.205 15.868 93.866 17.308 96.008 19.765C96.927 20.915 97.695 22.171 97.566 24.441V24.441ZM139.522 10.904C139.665 7.18799 142.479 5.05799 145.068 5.06999C148.061 4.98499 150.723 7.61799 150.683 10.908L150.547 29.774L147.841 29.778L147.878 10.907C147.847 9.11099 146.549 8.06699 145.063 8.01699C143.703 8.06099 142.428 9.127 142.372 10.904L142.494 29.764L139.666 29.767L139.522 10.904V10.904Z" fill="#160E20"/>
<path fill-rule="evenodd" clip-rule="evenodd" d="M149.961 18.576V15.64H140.458V18.575H149.961V18.576ZM111.151 29.872H113.924V13.652H111.151V29.872Z" fill="#160E20"/>
<path fill-rule="evenodd" clip-rule="evenodd" d="M111.144 10.977C111.285 7.237 114.057 5.097 116.607 5.107C119.556 5.022 122.178 7.672 122.138 10.98L122.074 12.276L119.504 16.125L119.376 10.979C119.345 9.173 118.067 8.122 116.603 8.072C115.263 8.117 114.007 9.188 113.951 10.977L113.932 24.091L111.175 24.116L111.144 10.976V10.977Z" fill="#160E20"/>
<path fill-rule="evenodd" clip-rule="evenodd" d="M114.053 16.399C114.836 15.9265 115.732 15.6746 116.646 15.67C119.595 15.584 122.217 18.234 122.177 21.542L122.167 29.872L119.48 29.869L119.415 21.541C119.384 19.735 118.106 18.684 116.642 18.634L113.805 18.653L112.137 18.738C110.896 14.793 111.041 18.185 114.053 16.398V16.399Z" fill="#160E20"/>
<path fill-rule="evenodd" clip-rule="evenodd" d="M111.297 12.777C111.439 16.517 113.995 18.657 116.546 18.647C119.495 18.732 122.117 16.083 122.077 12.774L122.105 11.184L119.442 7.629L119.314 12.775C119.283 14.581 118.005 15.632 116.542 15.682L113.889 15.706C113.253 15.713 113.915 13.616 113.889 12.777L113.884 8.957L113.839 8.297L111.944 11.13L111.297 12.777V12.777Z" fill="#160E20"/>
<path fill-rule="evenodd" clip-rule="evenodd" d="M120.592 10.273L122.14 10.966L122.072 13.002L120.592 13.292V10.272V10.273ZM58.4529 11.035C58.5949 7.319 61.3669 5.19 63.9169 5.202C66.8669 5.116 69.4879 7.75 69.4479 11.04L69.4999 24.145L66.6899 23.522L66.6869 11.038C66.6559 9.243 65.3769 8.198 63.9129 8.148C62.5729 8.193 61.3169 9.258 61.2609 11.035L61.2419 24.073L58.4839 24.097L58.4539 11.035H58.4529Z" fill="#160E20"/>
<path fill-rule="evenodd" clip-rule="evenodd" d="M58.4729 24.097C58.5369 27.813 61.3859 29.942 63.9369 29.93C66.8849 30.016 69.5309 27.382 69.4899 24.093L69.4569 19.83L66.6869 21.26L66.6899 24.094C66.6599 25.89 65.3959 26.934 63.9319 26.984C62.5919 26.939 61.3359 25.874 61.2799 24.097L61.2149 11.052L58.5039 11.035L58.4729 24.097V24.097ZM72.8679 24.165C73.0089 27.882 75.7809 30.01 78.3309 29.998C81.2809 30.084 83.9029 27.45 83.8629 24.161L83.8829 18.825L83.8929 15.789L77.4279 14.987L77.7159 17.487L81.0989 18.731L81.1029 19.657L81.1009 24.162C81.0699 25.958 79.7909 27.002 78.3269 27.052C76.9869 27.007 75.7309 25.942 75.6759 24.165L75.6559 11.128L72.8989 11.103L72.8679 24.165V24.165Z" fill="#160E20"/>
<path fill-rule="evenodd" clip-rule="evenodd" d="M72.8789 10.578C72.9669 9.396 73.6549 6.299 77.1639 5.346C77.5239 5.261 78.0169 5.191 78.3889 5.2L83.8069 5.553L83.1969 8.158C82.3019 8.128 79.7319 8.162 78.2439 8.156C77.2079 8.224 75.7149 9.003 75.6499 11.034L75.6359 22.902L72.8789 22.51V10.578ZM102.648 29.947H105.421V7.713H102.648V29.947V29.947Z" fill="#160E20"/>
<path fill-rule="evenodd" clip-rule="evenodd" d="M109.527 8.06599V5.12999H98.4971V8.06499H109.527V8.06599ZM125.705 10.505C125.793 9.32499 126.481 6.22699 129.99 5.27499C130.391 5.17923 130.802 5.12991 131.215 5.12799L136.632 5.48099L136.023 8.08699C135.128 8.05499 132.558 8.09099 131.07 8.08399C130.033 8.15299 128.541 8.93199 128.476 10.961L128.468 21.798L127.724 22.351L126.888 22.299L125.705 22.215V10.505V10.505Z" fill="#160E20"/>
<path fill-rule="evenodd" clip-rule="evenodd" d="M126.236 15.579L136.075 15.839L136.009 18.383L126.236 18.643V15.58V15.579Z" fill="#160E20"/>
<path fill-rule="evenodd" clip-rule="evenodd" d="M125.698 24.522C125.785 25.704 126.474 28.801 129.982 29.754C130.343 29.839 130.835 29.909 131.207 29.901L136.626 29.547L136.016 26.942C135.121 26.972 132.551 26.938 131.062 26.944C130.025 26.876 128.534 26.097 128.468 24.067L128.46 13.23L127.716 12.677L126.88 12.729L125.698 12.814V24.522V24.522ZM154.205 10.448C154.291 9.266 154.31 6.145 158.096 5.135C160.098 4.682 163.109 6.461 163.36 9.503L161.803 13.927C161.678 13.734 161.597 7.942 159.022 7.96C158.604 7.95268 158.193 8.07745 157.85 8.31659C157.507 8.55572 157.247 8.89703 157.109 9.292C156.953 9.718 156.974 10.255 156.975 10.903L156.946 29.7L154.212 29.675L154.205 10.448V10.448Z" fill="#160E20"/>
<path fill-rule="evenodd" clip-rule="evenodd" d="M170 10.415C169.912 9.234 169.893 6.113 166.109 5.102C163.99 4.528 161.094 6.428 160.845 9.47L162.402 13.895C162.526 13.701 162.608 7.91 165.182 7.928C166.022 7.919 166.789 8.418 167.096 9.26C167.25 9.685 167.23 10.223 167.228 10.87L167.243 29.716H170V10.415Z" fill="#160E20"/>
<path fill-rule="evenodd" clip-rule="evenodd" d="M160.662 8.024L161.001 18.5L163.373 18.487L163.712 8.089L160.662 8.024V8.024ZM86.2249 10.57C86.2779 9.379 86.8609 6.307 90.3389 5.231C90.6989 5.134 91.2059 5.038 91.5789 5.034C94.9549 4.962 97.2459 7.782 97.2259 10.857L97.2139 12.654L94.5299 12.656L94.4299 10.622C94.3399 8.802 92.7419 7.921 91.5329 8.02C90.4989 8.123 89.0439 8.89 89.0389 10.935C89.0319 12.115 89.1669 12.645 90.9229 14.539L95.7629 19.631C99.7129 24.026 96.5269 29.899 92.3629 29.972C88.2549 30.045 86.7359 26.702 86.6149 24.881L86.5659 24.148L87.7939 23.811C87.8759 23.789 87.1949 23.847 88.3289 23.661C88.2639 25.754 88.9109 23.261 89.2969 24.646C89.6579 25.947 90.4369 26.808 92.0419 26.988C93.3209 26.94 94.5209 26.035 94.7329 24.326C94.9449 22.765 93.3529 21.456 91.7509 19.772C90.1859 18.127 88.6339 16.222 87.7829 15.246C86.8649 14.096 86.0969 12.84 86.2249 10.57V10.57Z" fill="#160E20"/>
<path fill-rule="evenodd" clip-rule="evenodd" d="M97.566 24.441C97.514 25.633 96.931 28.704 93.452 29.779C93.094 29.877 92.585 29.974 92.213 29.977C88.836 30.048 86.314 27.221 86.535 24.155L86.585 21.285L89.359 21.287L89.385 24.38C89.399 26.204 91.051 27.09 92.259 26.99C93.293 26.888 94.747 26.12 94.753 24.077C94.76 22.896 94.624 22.367 92.868 20.472C91.495 19.026 86.609 10.021 91.161 14.778C92.205 15.868 93.866 17.308 96.008 19.765C96.927 20.915 97.695 22.171 97.566 24.441V24.441ZM139.522 10.904C139.665 7.18799 142.479 5.05799 145.068 5.06999C148.061 4.98499 150.723 7.61799 150.683 10.908L150.547 29.774L147.841 29.778L147.878 10.907C147.847 9.11099 146.549 8.06699 145.063 8.01699C143.703 8.06099 142.428 9.127 142.372 10.904L142.494 29.764L139.666 29.767L139.522 10.904V10.904Z" fill="#160E20"/>
<path fill-rule="evenodd" clip-rule="evenodd" d="M149.961 18.576V15.64H140.458V18.575H149.961V18.576Z" fill="#160E20"/>
<path fill-rule="evenodd" clip-rule="evenodd" d="M12.762 8.42001H15.872V11.563H12.762V8.42101V8.42001ZM15.947 8.42501H19.057V11.567H15.947V8.42501V8.42501ZM19.135 8.42001H22.245V11.563H19.135V8.42101V8.42001Z" fill="#7856FF"/>
<path fill-rule="evenodd" clip-rule="evenodd" d="M12.76 5.21301H22.25V14.749H12.76V5.21301Z" fill="#7856FF"/>
<path fill-rule="evenodd" clip-rule="evenodd" d="M15.946 2H19.055V5.592H15.945V2H15.946ZM3.191 11.63H7.34V14.772H3.191V11.63ZM0.00500488 14.846H7.497V17.988H0.00500488V14.846ZM34.998 14.855H27.832V17.996H34.998V14.856V14.855Z" fill="#7856FF"/>
<path fill-rule="evenodd" clip-rule="evenodd" d="M3.18997 11.571H6.56896V21.207H3.18896V11.571H3.18997ZM27.147 17.13H31.81V21.209H27.147V17.13ZM25.515 11.64H28.625V14.782H25.515V11.64V11.64ZM9.56596 5.20999H13.56V11.55H9.56596V5.20999ZM14.396 5.21299H25.436V8.35499H14.396V5.21299Z" fill="#7856FF"/>
<path fill-rule="evenodd" clip-rule="evenodd" d="M6.302 8.237H28.622V11.567H6.302V8.237Z" fill="#7856FF"/>
<path fill-rule="evenodd" clip-rule="evenodd" d="M6.38 8.429H9.49V11.571H6.38V8.429ZM9.564 2H12.674V6.081H9.564V2ZM22.323 2H25.433V6.923H22.323V2ZM25.515 14.856H28.624V17.998H25.514V14.856H25.515Z" fill="#7856FF"/>
<path fill-rule="evenodd" clip-rule="evenodd" d="M6.30497 8.398H9.44797V21.211H6.30497V8.398ZM25.513 8.267H28.623V21.21H25.513V8.267ZM3.22197 24.497H9.48997V27.639H3.21997V24.497H3.22197Z" fill="#7856FF"/>
<path fill-rule="evenodd" clip-rule="evenodd" d="M3.19094 11.524H6.35994V27.639H3.18994V11.523L3.19094 11.524ZM25.5149 24.495H31.7829V27.637H25.5149V24.495Z" fill="#7856FF"/>
<path fill-rule="evenodd" clip-rule="evenodd" d="M28.602 11.536H31.812V27.637H28.602V11.537V11.536ZM6.381 27.364H9.491V30.855H6.38V27.365L6.381 27.364ZM9.48201 30.856H12.684V33.998H9.48201V30.856V30.856Z" fill="#7856FF"/>
<path fill-rule="evenodd" clip-rule="evenodd" d="M25.5161 24.526H28.6261V30.867H25.5161V24.527V24.526Z" fill="#7856FF"/>
<path fill-rule="evenodd" clip-rule="evenodd" d="M22.367 30.858H25.532V34H22.367V30.858ZM12.68 27.714H22.37V30.855H12.68V27.714ZM0 21.28H6.266V24.423H0V21.28ZM29.834 21.285H35V24.426H29.834V21.286V21.285ZM15.944 21.285H19.054V24.426H15.944V21.285V21.285Z" fill="#7856FF"/>
<path fill-rule="evenodd" clip-rule="evenodd" d="M16.11 5.29299V2.15799L18.887 2.16399L18.89 5.35399L22.456 5.34599L22.461 2.15799L25.251 2.16599L25.237 8.40399L28.424 8.42599L28.419 11.693L31.63 11.703L31.637 15.033L34.802 15.018L34.793 17.798L31.618 17.796L31.61 21.411L34.864 21.41L34.861 24.294L31.714 24.314L28.754 24.297L28.752 21.073L25.688 21.053L25.666 11.411L18.928 11.416L18.938 8.47699L16.103 8.48199L16.11 5.29299V5.29299Z" fill="#7856FF"/>
</svg>
